<svg width="24" height="25" viewBox="0 0 24 25" fill="none" xmlns="http://www.w3.org/2000/svg">
<path d="M15.6255 10.6635V6.16348C15.6255 4.09241 13.9466 2.41348 11.8755 2.41348C9.80442 2.41348 8.12548 4.09241 8.12548 6.16348V10.6635M19.4815 8.67071L20.7447 20.6707C20.8146 21.335 20.2938 21.9135 19.6258 21.9135H4.12512C3.45721 21.9135 2.93638 21.335 3.0063 20.6707L4.26946 8.67071C4.32973 8.09815 4.81255 7.66348 5.38828 7.66348H18.3627C18.9384 7.66348 19.4212 8.09815 19.4815 8.67071ZM8.50048 10.6635C8.50048 10.8706 8.33259 11.0385 8.12548 11.0385C7.91838 11.0385 7.75048 10.8706 7.75048 10.6635C7.75048 10.4564 7.91838 10.2885 8.12548 10.2885C8.33259 10.2885 8.50048 10.4564 8.50048 10.6635ZM16.0005 10.6635C16.0005 10.8706 15.8326 11.0385 15.6255 11.0385C15.4184 11.0385 15.2505 10.8706 15.2505 10.6635C15.2505 10.4564 15.4184 10.2885 15.6255 10.2885C15.8326 10.2885 16.0005 10.4564 16.0005 10.6635Z" stroke="#667085" stroke-width="1.5" stroke-linecap="round" stroke-linejoin="round"/>
</svg>
