<svg width="24" height="24" viewBox="0 0 24 24" fill="none" xmlns="http://www.w3.org/2000/svg">
<path d="M15.7505 10.5V6C15.7505 3.92893 14.0716 2.25 12.0005 2.25C9.92942 2.25 8.25048 3.92893 8.25048 6V10.5M19.6065 8.50723L20.8697 20.5072C20.9396 21.1715 20.4188 21.75 19.7508 21.75H4.25012C3.58221 21.75 3.06138 21.1715 3.1313 20.5072L4.39446 8.50723C4.45473 7.93466 4.93755 7.5 5.51328 7.5H18.4877C19.0634 7.5 19.5462 7.93466 19.6065 8.50723ZM8.62548 10.5C8.62548 10.7071 8.45759 10.875 8.25048 10.875C8.04338 10.875 7.87548 10.7071 7.87548 10.5C7.87548 10.2929 8.04338 10.125 8.25048 10.125C8.45759 10.125 8.62548 10.2929 8.62548 10.5ZM16.1255 10.5C16.1255 10.7071 15.9576 10.875 15.7505 10.875C15.5434 10.875 15.3755 10.7071 15.3755 10.5C15.3755 10.2929 15.5434 10.125 15.7505 10.125C15.9576 10.125 16.1255 10.2929 16.1255 10.5Z" stroke="black" stroke-width="1.5" stroke-linecap="round" stroke-linejoin="round"/>
</svg>
